<svg width="206" height="50" viewBox="0 0 206 50" fill="none" xmlns="http://www.w3.org/2000/svg">
<g clip-path="url(#clip0_125_341)">
<path fill-rule="evenodd" clip-rule="evenodd" d="M39.1177 26.0886C39.5393 26.0836 39.9575 26.1659 40.3458 26.3302C40.7341 26.4946 41.0843 26.7374 41.3744 27.0435C41.6644 27.3496 41.888 27.7124 42.0311 28.109C42.1743 28.5057 42.2339 28.9276 42.2062 29.3484C42.1519 30.2239 41.7686 31.0464 41.1331 31.651C40.4976 32.2556 39.657 32.5976 38.7799 32.6083C38.3582 32.6134 37.9399 32.5312 37.5514 32.367C37.1629 32.2027 36.8126 31.9599 36.5225 31.6538C36.2323 31.3476 36.0086 30.9848 35.8654 30.5881C35.7221 30.1914 35.6625 29.7693 35.6902 29.3484C35.7448 28.4731 36.1282 27.6507 36.7636 27.0461C37.399 26.4416 38.2395 26.0995 39.1164 26.0886" fill="#9ACAEC"/>
<path fill-rule="evenodd" clip-rule="evenodd" d="M22.6367 8.69651C23.0584 8.6914 23.4765 8.77351 23.8649 8.93769C24.2533 9.10187 24.6036 9.34458 24.8937 9.65057C25.1839 9.95657 25.4076 10.3192 25.5509 10.7158C25.6942 11.1124 25.754 11.5343 25.7264 11.9551C25.6722 12.8306 25.2888 13.6531 24.6533 14.2577C24.0179 14.8623 23.1773 15.2043 22.3002 15.215C21.8785 15.2199 21.4604 15.1376 21.0721 14.9733C20.6837 14.809 20.3335 14.5661 20.0435 14.26C19.7535 13.9539 19.5299 13.5911 19.3867 13.1945C19.2436 12.7979 19.184 12.3759 19.2117 11.9551C19.2663 11.0799 19.6497 10.2576 20.2852 9.65329C20.9206 9.04894 21.7611 8.70716 22.6379 8.69651" fill="#8A8A8D"/>
<path fill-rule="evenodd" clip-rule="evenodd" d="M22.1811 17.3918C22.6028 17.3869 23.0209 17.4691 23.4093 17.6335C23.7976 17.7978 24.1478 18.0406 24.4378 18.3468C24.7279 18.6529 24.9515 19.0156 25.0946 19.4123C25.2378 19.8089 25.2974 20.2309 25.2697 20.6516C25.2154 21.5271 24.832 22.3496 24.1966 22.9543C23.5611 23.5589 22.7205 23.9008 21.8434 23.9115C21.4217 23.9166 21.0034 23.8345 20.6149 23.6702C20.2264 23.506 19.8761 23.2631 19.5859 22.957C19.2958 22.6509 19.0721 22.288 18.9288 21.8913C18.7856 21.4946 18.726 21.0725 18.7537 20.6516C18.8082 19.7763 19.1917 18.9539 19.8271 18.3494C20.4625 17.7448 21.3029 17.4028 22.1799 17.3918" fill="#8A8A8D"/>
<path fill-rule="evenodd" clip-rule="evenodd" d="M21.7258 26.0886C22.1475 26.0836 22.5656 26.1659 22.954 26.3302C23.3423 26.4946 23.6925 26.7374 23.9825 27.0435C24.2725 27.3496 24.4961 27.7124 24.6393 28.109C24.7824 28.5057 24.842 28.9276 24.8143 29.3484C24.76 30.2239 24.3767 31.0464 23.7412 31.651C23.1058 32.2556 22.2652 32.5976 21.3881 32.6083C20.9664 32.6132 20.5483 32.5309 20.16 32.3666C19.7716 32.2023 19.4214 31.9594 19.1314 31.6533C18.8414 31.3472 18.6178 30.9844 18.4746 30.5878C18.3315 30.1912 18.2719 29.7692 18.2996 29.3484C18.3539 28.473 18.7372 27.6504 19.3727 27.0458C20.0081 26.4412 20.8487 26.0993 21.7258 26.0886Z" fill="#8A8A8D"/>
<path fill-rule="evenodd" clip-rule="evenodd" d="M21.2697 34.7849C21.6913 34.7799 22.1095 34.8622 22.4978 35.0265C22.8862 35.1909 23.2363 35.4337 23.5264 35.7398C23.8164 36.0459 24.04 36.4087 24.1832 36.8053C24.3263 37.202 24.3859 37.6239 24.3582 38.0447C24.3039 38.9201 23.9205 39.7425 23.285 40.3469C22.6495 40.9513 21.8089 41.293 20.932 41.3033C20.5104 41.3083 20.0924 41.226 19.7041 41.0618C19.3159 40.8975 18.9658 40.6548 18.6757 40.3488C18.3857 40.0428 18.1621 39.6802 18.0189 39.2837C17.8756 38.8872 17.8159 38.4654 17.8434 38.0447C17.8977 37.1693 18.2811 36.3467 18.9165 35.7421C19.552 35.1375 20.3926 34.7956 21.2697 34.7849Z" fill="#8A8A8D"/>
<path fill-rule="evenodd" clip-rule="evenodd" d="M13.9416 8.6965C14.3632 8.69155 14.7812 8.77379 15.1695 8.93805C15.5577 9.10231 15.9078 9.34504 16.1979 9.65102C16.4879 9.957 16.7115 10.3196 16.8547 10.7161C16.9979 11.1126 17.0577 11.5344 17.0302 11.9551C16.9759 12.8306 16.5925 13.6531 15.9571 14.2577C15.3216 14.8623 14.481 15.2043 13.6039 15.2149C13.1823 15.2199 12.7641 15.1376 12.3758 14.9733C11.9874 14.809 11.6373 14.5661 11.3472 14.26C11.0572 13.9539 10.8336 13.5911 10.6904 13.1945C10.5473 12.7978 10.4877 12.3759 10.5154 11.9551C10.57 11.0799 10.9534 10.2576 11.5889 9.65328C12.2243 9.04893 13.0648 8.70715 13.9416 8.6965Z" fill="#8A8A8D"/>
<path fill-rule="evenodd" clip-rule="evenodd" d="M13.4841 17.3918C13.9056 17.3872 14.3234 17.4697 14.7115 17.6342C15.0996 17.7987 15.4494 18.0416 15.7392 18.3476C16.029 18.6537 16.2523 19.0164 16.3953 19.4128C16.5383 19.8093 16.5979 20.2311 16.5702 20.6516C16.5159 21.5271 16.1326 22.3496 15.4971 22.9542C14.8616 23.5588 14.021 23.9008 13.1439 23.9115C12.7223 23.9164 12.3042 23.8341 11.9158 23.6698C11.5275 23.5055 11.1773 23.2626 10.8873 22.9565C10.5972 22.6504 10.3736 22.2876 10.2305 21.891C10.0873 21.4943 10.0277 21.0724 10.0554 20.6516C10.1097 19.7762 10.4931 18.9536 11.1285 18.349C11.764 17.7444 12.6046 17.4025 13.4817 17.3918" fill="#8A8A8D"/>
<path fill-rule="evenodd" clip-rule="evenodd" d="M13.03 26.0886C13.4517 26.0836 13.8698 26.1659 14.2582 26.3302C14.6465 26.4946 14.9967 26.7374 15.2867 27.0435C15.5768 27.3496 15.8004 27.7124 15.9435 28.109C16.0867 28.5057 16.1463 28.9276 16.1186 29.3484C16.0643 30.2239 15.6809 31.0464 15.0455 31.651C14.41 32.2556 13.5694 32.5976 12.6923 32.6083C12.27 32.6142 11.8511 32.5327 11.4619 32.3688C11.0727 32.205 10.7216 31.9623 10.4308 31.6561C10.14 31.3498 9.91569 30.9867 9.7721 30.5895C9.62851 30.1924 9.56871 29.7698 9.59645 29.3484C9.65075 28.473 10.0341 27.6504 10.6696 27.0458C11.305 26.4412 12.1456 26.0993 13.0227 26.0886" fill="#8A8A8D"/>
<path fill-rule="evenodd" clip-rule="evenodd" d="M12.5732 34.7849C12.9949 34.7798 13.4132 34.8619 13.8017 35.0262C14.1902 35.1904 14.5405 35.4332 14.8306 35.7394C15.1208 36.0455 15.3445 36.4083 15.4877 36.8051C15.631 37.2018 15.6906 37.6238 15.6629 38.0447C15.6083 38.92 15.2248 39.7422 14.5894 40.3466C13.9539 40.9509 13.1135 41.2927 12.2366 41.3033C11.8151 41.3083 11.3971 41.226 11.0088 41.0618C10.6206 40.8975 10.2704 40.6548 9.98044 40.3488C9.69043 40.0428 9.46679 39.6802 9.32356 39.2837C9.18034 38.8872 9.12061 38.4654 9.14813 38.0447C9.20242 37.1693 9.58575 36.3467 10.2212 35.7421C10.8567 35.1375 11.6973 34.7956 12.5744 34.7849" fill="#8A8A8D"/>
<path fill-rule="evenodd" clip-rule="evenodd" d="M5.70035 -3.26571e-05C6.122 -0.00499107 6.54014 0.0772903 6.92848 0.241622C7.31683 0.405955 7.66701 0.648795 7.95703 0.954907C8.24706 1.26102 8.47067 1.62378 8.61382 2.02043C8.75697 2.41707 8.81656 2.83903 8.78887 3.2598C8.73428 4.13504 8.35081 4.9573 7.71537 5.56165C7.07993 6.166 6.23949 6.50776 5.36262 6.51841C4.94107 6.52336 4.52305 6.44112 4.1348 6.27686C3.74654 6.1126 3.39642 5.86987 3.10641 5.56389C2.8164 5.25791 2.59277 4.8953 2.44954 4.4988C2.30632 4.1023 2.24659 3.68048 2.2741 3.2598C2.32839 2.38434 2.71173 1.5618 3.3472 0.957192C3.98268 0.352585 4.82327 0.0106395 5.70035 -3.26571e-05Z" fill="white"/>
<path fill-rule="evenodd" clip-rule="evenodd" d="M5.24535 8.6965C5.6669 8.69155 6.08492 8.77379 6.47317 8.93805C6.86143 9.10231 7.21155 9.34504 7.50156 9.65102C7.79157 9.957 8.01521 10.3196 8.15843 10.7161C8.30166 11.1126 8.36139 11.5344 8.33387 11.9551C8.27958 12.8306 7.89625 13.6531 7.26077 14.2577C6.6253 14.8623 5.7847 15.2043 4.90762 15.2149C4.48597 15.2199 4.06784 15.1376 3.67949 14.9733C3.29114 14.809 2.94097 14.5661 2.65094 14.26C2.36092 13.9539 2.13731 13.5911 1.99416 13.1945C1.85101 12.7978 1.79141 12.3759 1.8191 11.9551C1.87341 11.0798 2.25679 10.2574 2.89229 9.65295C3.5278 9.04854 4.36839 8.70686 5.24535 8.6965Z" fill="white"/>
<path fill-rule="evenodd" clip-rule="evenodd" d="M4.78928 17.3919C5.21135 17.3862 5.63002 17.468 6.01895 17.632C6.40788 17.7961 6.75865 18.0388 7.0492 18.345C7.33976 18.6512 7.5638 19.0142 7.70725 19.4112C7.85069 19.8082 7.91043 20.2305 7.8827 20.6517C7.82841 21.5272 7.44507 22.3497 6.8096 22.9543C6.17413 23.5589 5.33353 23.9009 4.45645 23.9115C4.03479 23.9165 3.61667 23.8342 3.22832 23.6699C2.83997 23.5056 2.48979 23.2627 2.19977 22.9566C1.90974 22.6505 1.68614 22.2877 1.54299 21.8911C1.39984 21.4944 1.34024 21.0725 1.36793 20.6517C1.42222 19.7762 1.80556 18.9537 2.44103 18.3491C3.07651 17.7445 3.91711 17.4025 4.79418 17.3919" fill="white"/>
<path fill-rule="evenodd" clip-rule="evenodd" d="M4.33422 26.0886C4.75588 26.0836 5.17401 26.1659 5.56236 26.3302C5.9507 26.4946 6.30088 26.7374 6.59091 27.0435C6.88093 27.3496 7.10453 27.7124 7.24768 28.109C7.39083 28.5057 7.45043 28.9276 7.42274 29.3484C7.36845 30.2239 6.98511 31.0464 6.34964 31.651C5.71417 32.2556 4.87357 32.5976 3.99649 32.6083C3.57483 32.6132 3.15671 32.5309 2.76836 32.3666C2.38001 32.2023 2.02983 31.9594 1.73981 31.6533C1.44978 31.3472 1.22618 30.9844 1.08303 30.5878C0.939879 30.1912 0.880279 29.7692 0.907971 29.3484C0.962264 28.473 1.3456 27.6504 1.98108 27.0458C2.61655 26.4412 3.45715 26.0993 4.33422 26.0886Z" fill="white"/>
<path fill-rule="evenodd" clip-rule="evenodd" d="M3.87736 34.7849C4.29901 34.7799 4.71714 34.8622 5.10549 35.0265C5.49383 35.1909 5.84401 35.4337 6.13404 35.7398C6.42406 36.0459 6.64767 36.4087 6.79082 36.8053C6.93397 37.202 6.99357 37.6239 6.96588 38.0447C6.91129 38.92 6.52782 39.7422 5.89237 40.3465C5.25693 40.9509 4.4165 41.2927 3.53963 41.3033C3.11798 41.3084 2.69982 41.2263 2.31142 41.0621C1.92301 40.898 1.57275 40.6553 1.28261 40.3493C0.992471 40.0433 0.768728 39.6806 0.625426 39.284C0.482124 38.8874 0.422359 38.4655 0.449884 38.0447C0.504177 37.1693 0.887511 36.3467 1.52298 35.7421C2.15846 35.1375 2.99906 34.7956 3.87613 34.7849" fill="white"/>
<path fill-rule="evenodd" clip-rule="evenodd" d="M3.42089 43.4938C3.84067 43.4894 4.25685 43.5717 4.64338 43.7355C5.0299 43.8994 5.37845 44.1412 5.66721 44.4459C5.95597 44.7507 6.17872 45.1117 6.32153 45.5065C6.46435 45.9013 6.52414 46.3213 6.49717 46.7402C6.44461 47.6139 6.06291 48.4352 5.42897 49.0387C4.79503 49.6422 3.95594 49.9831 3.08071 49.9927C2.66088 49.9973 2.24461 49.9151 1.85801 49.7513C1.4714 49.5876 1.12278 49.3457 0.833982 49.041C0.545185 48.7362 0.322434 48.3751 0.179689 47.9802C0.0369435 47.5854 -0.0227213 47.1653 0.00442969 46.7463C0.0584804 45.8737 0.440825 45.0539 1.07461 44.4516C1.7084 43.8494 2.54665 43.5094 3.42089 43.4999" fill="white"/>
<path fill-rule="evenodd" clip-rule="evenodd" d="M48.7263 8.69647C49.1477 8.69187 49.5654 8.77435 49.9534 8.93875C50.3413 9.10316 50.6912 9.34595 50.9809 9.65189C51.2706 9.95783 51.4941 10.3203 51.6371 10.7167C51.7802 11.113 51.8399 11.5346 51.8124 11.9551C51.7581 12.8305 51.3748 13.6531 50.7393 14.2577C50.1038 14.8623 49.2632 15.2042 48.3861 15.2149C47.9645 15.2199 47.5463 15.1376 47.158 14.9733C46.7697 14.8089 46.4195 14.5661 46.1295 14.26C45.8394 13.9539 45.6158 13.5911 45.4727 13.1945C45.3295 12.7978 45.2699 12.3759 45.2976 11.9551C45.3522 11.0798 45.7357 10.2576 46.3711 9.65325C47.0066 9.0489 47.847 8.70712 48.7239 8.69647" fill="white"/>
<path fill-rule="evenodd" clip-rule="evenodd" d="M48.27 17.3918C48.6917 17.3869 49.1098 17.4691 49.4982 17.6335C49.8865 17.7978 50.2367 18.0406 50.5267 18.3468C50.8167 18.6529 51.0403 19.0156 51.1835 19.4123C51.3266 19.8089 51.3862 20.2309 51.3585 20.6516C51.3043 21.5271 50.9209 22.3496 50.2854 22.9543C49.65 23.5589 48.8094 23.9008 47.9323 23.9115C47.5101 23.9173 47.0913 23.8356 46.7023 23.6717C46.3132 23.5077 45.9623 23.265 45.6716 22.9588C45.3809 22.6526 45.1567 22.2896 45.0132 21.8925C44.8697 21.4954 44.8099 21.0729 44.8377 20.6516C44.892 19.7762 45.2753 18.9536 45.9108 18.349C46.5462 17.7444 47.3868 17.4025 48.2639 17.3918" fill="white"/>
<path fill-rule="evenodd" clip-rule="evenodd" d="M47.8146 26.0886C48.2363 26.0836 48.6544 26.1659 49.0427 26.3302C49.4311 26.4946 49.7813 26.7374 50.0713 27.0435C50.3613 27.3496 50.5849 27.7124 50.7281 28.109C50.8712 28.5057 50.9308 28.9276 50.9031 29.3484C50.8485 30.2237 50.4651 31.0459 49.8296 31.6503C49.1942 32.2546 48.3538 32.5964 47.4769 32.607C47.0553 32.612 46.6373 32.5297 46.249 32.3655C45.8608 32.2012 45.5107 31.9585 45.2207 31.6525C44.9307 31.3465 44.707 30.9839 44.5638 30.5874C44.4206 30.1909 44.3608 29.7691 44.3884 29.3484C44.4427 28.473 44.826 27.6504 45.4615 27.0458C46.0969 26.4412 46.9375 26.0993 47.8146 26.0886Z" fill="white"/>
<path fill-rule="evenodd" clip-rule="evenodd" d="M47.3586 34.7849C47.7802 34.7799 48.1983 34.8622 48.5867 35.0265C48.975 35.1909 49.3252 35.4337 49.6152 35.7398C49.9053 36.0459 50.1289 36.4087 50.272 36.8053C50.4152 37.202 50.4748 37.6239 50.4471 38.0447C50.3928 38.9201 50.0094 39.7425 49.3739 40.3469C48.7384 40.9513 47.8978 41.293 47.0208 41.3033C46.5993 41.3083 46.1813 41.226 45.793 41.0618C45.4047 40.8975 45.0546 40.6548 44.7646 40.3488C44.4746 40.0428 44.251 39.6802 44.1077 39.2837C43.9645 38.8872 43.9048 38.4654 43.9323 38.0447C43.9866 37.1693 44.3699 36.3467 45.0054 35.7421C45.6409 35.1375 46.4815 34.7956 47.3586 34.7849Z" fill="white"/>
<path fill-rule="evenodd" clip-rule="evenodd" d="M31.333 8.70866C31.7528 8.70426 32.169 8.78655 32.5555 8.95038C32.942 9.11421 33.2906 9.35605 33.5793 9.66078C33.8681 9.96551 34.0908 10.3266 34.2337 10.7213C34.3765 11.1161 34.4363 11.5361 34.4093 11.955C34.355 12.8276 33.9725 13.6472 33.3388 14.2494C32.7051 14.8516 31.867 15.1917 30.9928 15.2014C30.573 15.206 30.1567 15.1238 29.7701 14.9601C29.3835 14.7963 29.0349 14.5545 28.7461 14.2497C28.4573 13.9449 28.2346 13.5838 28.0918 13.1889C27.9491 12.7941 27.8894 12.374 27.9165 11.955C27.9706 11.0824 28.3529 10.2626 28.9867 9.66038C29.6205 9.05814 30.4588 8.71812 31.333 8.70866Z" fill="white"/>
<path fill-rule="evenodd" clip-rule="evenodd" d="M30.8782 17.3918C31.2998 17.3869 31.718 17.4691 32.1063 17.6335C32.4946 17.7978 32.8448 18.0406 33.1349 18.3468C33.4249 18.6529 33.6485 19.0156 33.7916 19.4123C33.9348 19.8089 33.9944 20.2309 33.9667 20.6516C33.9124 21.5271 33.5291 22.3496 32.8936 22.9543C32.2581 23.5589 31.4175 23.9008 30.5404 23.9115C30.1188 23.9164 29.7007 23.8342 29.3123 23.6698C28.924 23.5055 28.5738 23.2627 28.2838 22.9566C27.9937 22.6504 27.7701 22.2877 27.627 21.891C27.4838 21.4944 27.4242 21.0724 27.4519 20.6516C27.5062 19.7762 27.8896 18.9536 28.525 18.349C29.1605 17.7444 30.0011 17.4025 30.8782 17.3918Z" fill="white"/>
<path fill-rule="evenodd" clip-rule="evenodd" d="M30.4219 26.0886C30.8436 26.0835 31.2619 26.1656 31.6504 26.3299C32.0389 26.4941 32.3892 26.737 32.6794 27.0431C32.9695 27.3492 33.1932 27.712 33.3365 28.1088C33.4797 28.5055 33.5393 28.9276 33.5116 29.3484C33.457 30.2238 33.0736 31.0462 32.4382 31.6507C31.8028 32.2553 30.9623 32.5973 30.0854 32.6083C29.6637 32.6132 29.2456 32.5309 28.8572 32.3666C28.4689 32.2023 28.1187 31.9594 27.8287 31.6533C27.5386 31.3472 27.315 30.9845 27.1719 30.5878C27.0287 30.1912 26.9691 29.7692 26.9968 29.3484C27.0511 28.473 27.4345 27.6504 28.0699 27.0458C28.7054 26.4412 29.546 26.0993 30.4231 26.0886" fill="white"/>
<path fill-rule="evenodd" clip-rule="evenodd" d="M29.9662 34.7849C30.3879 34.7799 30.806 34.8622 31.1944 35.0265C31.5827 35.1909 31.9329 35.4337 32.2229 35.7398C32.5129 36.0459 32.7365 36.4087 32.8797 36.8053C33.0228 37.202 33.0824 37.6239 33.0547 38.0447C33.0004 38.9201 32.6171 39.7425 31.9815 40.3469C31.346 40.9513 30.5055 41.293 29.6285 41.3033C29.2068 41.3084 28.7887 41.2263 28.4003 41.0621C28.0119 40.898 27.6616 40.6553 27.3715 40.3493C27.0813 40.0433 26.8576 39.6806 26.7143 39.284C26.571 38.8874 26.5112 38.4655 26.5388 38.0447C26.593 37.1693 26.9764 36.3467 27.6119 35.7421C28.2473 35.1375 29.0879 34.7956 29.965 34.7849" fill="white"/>
<path fill-rule="evenodd" clip-rule="evenodd" d="M20.8147 43.4817C21.2362 43.4767 21.6543 43.5589 22.0425 43.7232C22.4308 43.8875 22.7809 44.1302 23.0709 44.4362C23.3609 44.7421 23.5845 45.1048 23.7278 45.5013C23.871 45.8978 23.9307 46.3196 23.9032 46.7403C23.8489 47.6157 23.4656 48.4383 22.8301 49.0429C22.1946 49.6475 21.354 49.9894 20.477 50.0001C20.0553 50.0051 19.6372 49.9228 19.2488 49.7584C18.8605 49.5941 18.5103 49.3513 18.2203 49.0452C17.9302 48.739 17.7066 48.3763 17.5635 47.9796C17.4203 47.583 17.3607 47.161 17.3884 46.7403C17.443 45.865 17.8265 45.0428 18.4619 44.4384C19.0974 43.8341 19.9378 43.4923 20.8147 43.4817Z" fill="white"/>
<path fill-rule="evenodd" clip-rule="evenodd" d="M14.3966 -3.26571e-05C14.8183 -0.00499107 15.2364 0.0772903 15.6248 0.241622C16.0131 0.405955 16.3633 0.648795 16.6533 0.954907C16.9433 1.26102 17.167 1.62378 17.3101 2.02043C17.4533 2.41707 17.5128 2.83903 17.4852 3.2598C17.4308 4.13514 17.0475 4.95755 16.412 5.56196C15.7765 6.16637 14.9359 6.50805 14.0589 6.51841C13.6374 6.52336 13.2193 6.44112 12.8311 6.27686C12.4428 6.1126 12.0927 5.86987 11.8027 5.56389C11.5127 5.25791 11.2891 4.8953 11.1458 4.4988C11.0026 4.1023 10.9429 3.68048 10.9704 3.2598C11.0247 2.38434 11.408 1.5618 12.0435 0.957192C12.679 0.352585 13.5196 0.0106395 14.3966 -3.26571e-05Z" fill="white"/>
<path fill-rule="evenodd" clip-rule="evenodd" d="M23.0932 -3.26572e-05C23.5148 -0.00499107 23.933 0.0772903 24.3213 0.241622C24.7097 0.405955 25.0598 0.648795 25.3499 0.954907C25.6399 1.26102 25.8635 1.62378 26.0066 2.02043C26.1498 2.41707 26.2094 2.83903 26.1817 3.2598C26.1274 4.13514 25.744 4.95755 25.1085 5.56196C24.473 6.16637 23.6324 6.50805 22.7554 6.51841C22.3338 6.52353 21.9157 6.44142 21.5272 6.27723C21.1388 6.11305 20.7886 5.87035 20.4984 5.56435C20.2083 5.25836 19.9845 4.89569 19.8412 4.4991C19.6979 4.10252 19.6382 3.68058 19.6657 3.2598C19.72 2.38434 20.1033 1.5618 20.7388 0.957192C21.3743 0.352585 22.2149 0.0106395 23.092 -3.26572e-05" fill="white"/>
<path fill-rule="evenodd" clip-rule="evenodd" d="M12.1177 43.4817C12.5392 43.4767 12.9572 43.5589 13.3455 43.7232C13.7338 43.8875 14.0839 44.1302 14.3739 44.4362C14.6639 44.7421 14.8875 45.1048 15.0308 45.5013C15.174 45.8978 15.2337 46.3196 15.2062 46.7403C15.1519 47.6157 14.7686 48.4383 14.1331 49.0429C13.4976 49.6475 12.657 49.9894 11.7799 50.0001C11.3582 50.0052 10.9399 49.9231 10.5514 49.7588C10.1629 49.5946 9.81261 49.3517 9.52245 49.0456C9.23229 48.7395 9.00858 48.3766 8.86536 47.9799C8.72214 47.5832 8.6625 47.1611 8.6902 46.7403C8.74479 45.865 9.12826 45.0428 9.7637 44.4384C10.3991 43.8341 11.2396 43.4923 12.1164 43.4817" fill="white"/>
<path d="M124.272 38.2836C124.267 38.4901 124.218 38.6932 124.128 38.8788C124.037 39.0645 123.908 39.2284 123.748 39.3592C123.432 39.6039 123 39.7283 122.451 39.7324H122.051L121.94 41.2815H121.002L121.312 36.9253H122.726C123.264 36.9253 123.664 37.0391 123.928 37.2667C124.187 37.4931 124.303 37.8333 124.272 38.2836ZM122.101 38.9749H122.41C122.643 38.99 122.874 38.9309 123.071 38.8061C123.146 38.7481 123.207 38.674 123.249 38.5893C123.292 38.5045 123.315 38.4113 123.316 38.3166C123.331 38.2308 123.325 38.1428 123.3 38.0596C123.274 37.9763 123.23 37.9001 123.17 37.8369C123.011 37.7194 122.813 37.6642 122.616 37.6815H122.189L122.101 38.9749Z" fill="#9ACAEC"/>
<path d="M134.309 41.2838L134.065 40.2473H132.452L132.057 41.2838H131.046L132.921 36.9092H134.068L135.326 41.2838H134.309ZM133.893 39.4728C133.663 38.533 133.534 38.0027 133.505 37.882C133.476 37.7596 133.457 37.6617 133.445 37.5895C133.364 37.8441 133.128 38.473 132.738 39.4764L133.893 39.4728Z" fill="#9ACAEC"/>
<path d="M143.143 39.6125L143.021 41.284H142.081L142.392 36.9277H143.682C144.284 36.9277 144.721 37.0354 144.995 37.2508C145.268 37.4661 145.39 37.7925 145.362 38.2297C145.345 38.4791 145.254 38.7177 145.099 38.9137C144.928 39.1222 144.707 39.2836 144.456 39.3824C145.053 40.3613 145.442 40.994 145.624 41.2803H144.581L143.642 39.6088L143.143 39.6125ZM143.197 38.8623H143.499C143.731 38.8779 143.963 38.827 144.167 38.7155C144.242 38.6646 144.304 38.5962 144.346 38.5163C144.389 38.4363 144.412 38.3472 144.412 38.2566C144.427 38.1732 144.417 38.0873 144.385 38.0091C144.352 37.931 144.297 37.864 144.227 37.8161C144.022 37.7137 143.794 37.6685 143.565 37.6852H143.28L143.197 38.8623Z" fill="#9ACAEC"/>
<path d="M155.657 41.2838L155.412 40.2473H153.797L153.402 41.2838H152.39L154.264 36.9092H155.413L156.671 41.2838H155.657ZM155.24 39.4728C155.01 38.533 154.881 38.0027 154.853 37.882C154.824 37.7596 154.804 37.6617 154.793 37.5895C154.711 37.8441 154.476 38.473 154.086 39.4764L155.24 39.4728Z" fill="#9ACAEC"/>
<path d="M165.339 38.8378H167.096L166.935 41.0967C166.668 41.1827 166.394 41.2469 166.117 41.2888C165.861 41.3256 165.602 41.344 165.343 41.3439C164.673 41.3439 164.178 41.1505 163.852 40.7638C163.527 40.3772 163.391 39.8229 163.442 39.0997C163.493 38.3973 163.738 37.8491 164.176 37.4551C164.615 37.0611 165.196 36.8644 165.919 36.8653C166.365 36.8633 166.806 36.9546 167.215 37.1333L166.848 37.8674C166.542 37.7076 166.202 37.6236 165.857 37.6227C165.67 37.6166 165.485 37.6493 165.312 37.7186C165.139 37.7879 164.982 37.8923 164.852 38.0253C164.577 38.3198 164.42 38.7045 164.409 39.107C164.375 39.5793 164.448 39.9403 164.627 40.19C164.805 40.4396 165.083 40.5644 165.459 40.5644C165.661 40.5634 165.862 40.5433 166.06 40.5044L166.124 39.5953H165.285L165.339 38.8378Z" fill="#9ACAEC"/>
<path d="M177.815 36.9278L177.615 39.7422C177.599 40.0439 177.503 40.336 177.336 40.5877C177.168 40.8336 176.934 41.027 176.661 41.1457C176.347 41.2801 176.007 41.346 175.665 41.3391C175.094 41.3391 174.662 41.1955 174.369 40.9083C174.075 40.622 173.945 40.228 173.98 39.7299L174.181 36.9229H175.117L174.927 39.5892C174.903 39.9261 174.954 40.1709 175.08 40.3234C175.207 40.476 175.428 40.5547 175.745 40.5596C176.052 40.5596 176.28 40.48 176.43 40.3222C176.581 40.1643 176.666 39.9172 176.691 39.5794L176.879 36.918L177.815 36.9278Z" fill="#9ACAEC"/>
<path d="M187.848 41.2838L187.604 40.2473H185.987L185.592 41.2838H184.58L186.455 36.9092H187.603L188.86 41.2838H187.848ZM187.432 39.4728C187.202 38.533 187.073 38.0027 187.045 37.882C187.016 37.7596 186.997 37.6617 186.985 37.5895C186.903 37.8441 186.668 38.473 186.279 39.4764L187.432 39.4728Z" fill="#9ACAEC"/>
<path d="M197.429 38.7216L198.482 36.9277H199.494L197.838 39.5916L197.716 41.2864H196.782L196.904 39.621L195.627 36.929H196.645L197.429 38.7216Z" fill="#9ACAEC"/>
<path d="M202.007 19.5491C202.006 19.2428 202.086 18.9417 202.239 18.6766C202.39 18.4081 202.611 18.1857 202.878 18.033C203.144 17.8796 203.446 17.7989 203.753 17.7991C204.06 17.7992 204.361 17.8802 204.627 18.0339C204.893 18.1875 205.113 18.4085 205.267 18.6744C205.42 18.9404 205.501 19.2421 205.5 19.5491C205.501 19.8532 205.423 20.1523 205.272 20.4167C205.122 20.6811 204.906 20.9017 204.644 21.0567C204.444 21.175 204.222 21.2523 203.992 21.284C203.762 21.3157 203.528 21.3013 203.304 21.2415C203.079 21.1817 202.869 21.0777 202.685 20.9356C202.501 20.7936 202.348 20.6163 202.233 20.4142C202.084 20.1504 202.006 19.8522 202.007 19.5491ZM202.252 19.5491C202.252 19.9481 202.41 20.3308 202.691 20.6134C202.973 20.896 203.355 21.0554 203.754 21.0567C204.018 21.0581 204.278 20.9884 204.506 20.8547C204.733 20.7221 204.922 20.5328 205.055 20.3053C205.188 20.0763 205.258 19.8162 205.258 19.5515C205.258 19.2868 205.188 19.0268 205.055 18.7978C204.923 18.5694 204.734 18.3792 204.507 18.2459C204.278 18.1133 204.019 18.0435 203.755 18.0435C203.491 18.0435 203.231 18.1133 203.003 18.2459C202.775 18.3786 202.586 18.5678 202.454 18.7953C202.319 19.0235 202.248 19.284 202.25 19.5491H202.252ZM204.463 19.1257C204.465 19.243 204.431 19.3581 204.365 19.4549C204.296 19.5524 204.199 19.6266 204.087 19.6678L204.64 20.5892H204.25L203.769 19.7645H203.456V20.5892H203.111V18.509H203.722C203.921 18.4962 204.119 18.5519 204.282 18.6668C204.344 18.725 204.393 18.7964 204.424 18.8758C204.455 18.9553 204.468 19.0406 204.462 19.1257H204.463ZM203.456 19.4769H203.7C203.808 19.4827 203.915 19.4482 203.999 19.3802C204.035 19.3509 204.065 19.3135 204.084 19.2711C204.104 19.2287 204.114 19.1823 204.113 19.1355C204.116 19.0897 204.109 19.0437 204.092 19.0013C204.074 18.9588 204.047 18.9209 204.012 18.8908C203.918 18.8329 203.807 18.8064 203.697 18.8149H203.452L203.456 19.4769Z" fill="white"/>
<path d="M67.5407 32.5713H63.8464L64.4583 20.8242H61.125L61.2829 17.7993H71.6436L71.4857 20.8242H68.1562L67.5407 32.5713Z" fill="white"/>
<path d="M76.5527 32.755C74.8273 32.755 73.5115 32.2953 72.6051 31.3759C71.6988 30.4565 71.2909 29.148 71.3815 27.4504C71.4737 25.6981 71.9864 24.3521 72.9196 23.4123C73.8529 22.4726 75.1397 22.0039 76.7803 22.0064C78.3417 22.0064 79.5245 22.4142 80.3289 23.23C81.1332 24.0458 81.4971 25.2197 81.4204 26.7517L81.3359 28.3425H74.9399C74.9342 28.9225 75.1226 29.3773 75.5052 29.7068C75.8878 30.0364 76.4234 30.1996 77.1119 30.1963C77.6975 30.2005 78.2818 30.1406 78.8544 30.0177C79.4562 29.874 80.0417 29.669 80.6018 29.4058L80.4672 31.9755C79.9085 32.2569 79.3128 32.4575 78.6977 32.5714C77.9895 32.696 77.2717 32.7574 76.5527 32.755ZM76.7778 24.4463C76.3814 24.4371 75.9963 24.5793 75.701 24.844C75.4032 25.11 75.2152 25.5268 75.1369 26.0946H78.2107C78.2238 25.5937 78.1014 25.1936 77.8436 24.8942C77.7108 24.7439 77.5457 24.6255 77.3608 24.548C77.1758 24.4704 76.9757 24.4357 76.7754 24.4463H76.7778Z" fill="white"/>
<path d="M89.764 22.0088C90.0601 22.0076 90.3557 22.0322 90.6475 22.0822L90.847 22.1189L90.3489 25.4999C89.9513 25.4157 89.5451 25.3788 89.1387 25.3898C88.3572 25.3898 87.7805 25.5684 87.4085 25.9258C87.0365 26.2831 86.8325 26.7974 86.7966 27.4688L86.5299 32.5715H82.9531L83.4964 22.1924H86.1591L86.6302 23.8504H86.8089C87.1323 23.305 87.5849 22.8473 88.1268 22.5179C88.6143 22.1986 89.1814 22.0223 89.764 22.0088Z" fill="white"/>
<path d="M104.281 32.5716L104.578 26.928C104.614 26.2265 104.546 25.6999 104.372 25.3483C104.295 25.1815 104.17 25.0419 104.013 24.9477C103.855 24.8536 103.673 24.8094 103.49 24.8209C103.237 24.8115 102.987 24.8726 102.767 24.9973C102.548 25.122 102.367 25.3054 102.245 25.5269C101.964 25.9968 101.797 26.731 101.745 27.7295L101.492 32.5667H97.905L98.2011 26.9231C98.2378 26.2216 98.1742 25.695 98.0102 25.3434C97.9391 25.178 97.8186 25.0387 97.6653 24.9443C97.512 24.8499 97.3334 24.8051 97.1537 24.816C96.8931 24.8077 96.6356 24.8739 96.4114 25.0071C96.1872 25.1402 96.0058 25.3345 95.8884 25.5673C95.6053 26.069 95.4344 26.8876 95.3757 28.0232L95.1309 32.5667H91.5566L92.1012 22.1876H94.7932L95.1738 23.47H95.3842C95.6861 22.9921 96.1213 22.6131 96.6361 22.3797C97.2006 22.1233 97.8149 21.995 98.4348 22.004C99.9293 22.004 100.954 22.4592 101.51 23.3696H101.794C102.124 22.9304 102.563 22.5846 103.068 22.3662C103.616 22.1202 104.21 21.995 104.811 21.9991C106.035 21.9991 106.924 22.3136 107.479 22.9426C108.034 23.5715 108.278 24.5276 108.213 25.8108L107.858 32.5618L104.281 32.5716Z" fill="white"/>
<path d="M120.278 27.355C120.188 29.0534 119.663 30.3774 118.702 31.327C117.741 32.2765 116.44 32.7513 114.798 32.7513C113.225 32.7513 111.998 32.2655 111.119 31.2939C110.239 30.3223 109.845 29.0094 109.937 27.355C110.025 25.6639 110.549 24.3493 111.51 23.4111C112.471 22.473 113.777 22.0043 115.426 22.0051C116.444 22.0051 117.333 22.2221 118.091 22.6561C118.844 23.0818 119.443 23.7339 119.804 24.5197C120.176 25.3323 120.334 26.2773 120.278 27.355ZM113.562 27.355C113.516 28.2466 113.598 28.9262 113.807 29.3936C114.017 29.861 114.404 30.0947 114.97 30.0947C115.218 30.1081 115.465 30.0489 115.68 29.9244C115.895 29.7999 116.069 29.6155 116.181 29.3936C116.435 28.9262 116.585 28.2466 116.631 27.355C116.678 26.4633 116.596 25.7948 116.387 25.3494C116.179 24.8974 115.794 24.6715 115.233 24.6715C114.671 24.6715 114.266 24.8958 114.018 25.3445C113.761 25.7964 113.609 26.4666 113.562 27.355Z" fill="white"/>
<path d="M133.282 32.5714L133.625 26.0762C133.668 25.2604 133.513 24.6486 133.16 24.2407C132.806 23.8328 132.231 23.6313 131.434 23.6362C130.38 23.6362 129.592 23.9217 129.071 24.4928C128.551 25.0638 128.256 26.0019 128.187 27.3072L127.909 32.575H126.382L126.912 22.5349H128.154L128.329 23.9091H128.403C128.75 23.4085 129.225 23.011 129.779 22.7588C130.376 22.4831 131.028 22.3439 131.686 22.3514C132.9 22.3514 133.798 22.643 134.378 23.2263C134.959 23.8096 135.217 24.7424 135.151 26.0248L134.806 32.575L133.282 32.5714Z" fill="white"/>
<path d="M144.781 31.2363H144.699C143.94 32.2568 142.858 32.7671 141.453 32.7671C140.134 32.7671 139.132 32.3184 138.447 31.4211C137.762 30.5237 137.463 29.2474 137.55 27.5922C137.636 25.937 138.072 24.6514 138.857 23.7353C139.642 22.8191 140.69 22.3611 142.002 22.3611C143.37 22.3611 144.392 22.8558 145.069 23.8454H145.192L145.166 23.121V22.4161L145.411 17.8188H146.938L146.157 32.5835H144.915L144.781 31.2363ZM141.714 31.4933C142.757 31.4933 143.527 31.211 144.026 30.6465C144.524 30.082 144.807 29.1704 144.874 27.9116L144.891 27.591C144.965 26.1675 144.781 25.1523 144.338 24.5453C143.895 23.9384 143.152 23.6345 142.109 23.6337C141.212 23.6337 140.508 23.98 139.998 24.6726C139.489 25.3652 139.199 26.3441 139.131 27.6094C139.064 28.8918 139.249 29.8597 139.686 30.5131C140.124 31.1666 140.8 31.4933 141.714 31.4933Z" fill="white"/>
<path d="M150.706 22.5312L150.363 29.0448C150.321 29.8606 150.476 30.4724 150.828 30.8803C151.18 31.2882 151.755 31.4897 152.552 31.4848C153.609 31.4848 154.395 31.1993 154.911 30.6282C155.428 30.0572 155.721 29.119 155.791 27.8138L156.07 22.5374H157.597L157.067 32.5775H155.807L155.657 31.2315H155.579C155.238 31.728 154.767 32.1209 154.217 32.367C153.614 32.6366 152.959 32.771 152.298 32.7611C151.074 32.7611 150.171 32.471 149.588 31.891C149.006 31.311 148.749 30.3827 148.819 29.106L149.165 22.5374L150.706 22.5312Z" fill="white"/>
<path d="M166.581 29.8328C166.53 30.7668 166.142 31.4872 165.418 31.9938C164.694 32.5004 163.699 32.7541 162.434 32.7549C161.096 32.7549 160.064 32.544 159.339 32.1222L159.414 30.7114C159.899 30.9613 160.412 31.1551 160.942 31.2889C161.461 31.4255 161.996 31.4963 162.533 31.4994C163.33 31.4994 163.95 31.373 164.393 31.1201C164.603 31.0072 164.779 30.8401 164.903 30.6361C165.027 30.4321 165.094 30.1987 165.097 29.96C165.108 29.7684 165.072 29.577 164.992 29.4024C164.913 29.2278 164.792 29.0752 164.64 28.9579C164.313 28.6805 163.667 28.3542 162.7 27.9789C161.78 27.6314 161.127 27.3275 160.742 27.0673C160.396 26.8452 160.108 26.542 159.905 26.1838C159.723 25.818 159.645 25.4091 159.679 25.0018C159.691 24.6137 159.798 24.2345 159.99 23.8969C160.182 23.5594 160.453 23.2738 160.78 23.0647C161.475 22.5907 162.404 22.3538 163.569 22.3538C164.653 22.3536 165.725 22.5782 166.718 23.0133L166.106 24.2504C165.115 23.836 164.209 23.6284 163.388 23.6276C162.664 23.6276 162.112 23.7406 161.732 23.9666C161.56 24.0563 161.413 24.1897 161.308 24.3535C161.202 24.5172 161.142 24.7057 161.132 24.9002C161.11 25.1419 161.17 25.3839 161.302 25.5879C161.472 25.8134 161.69 25.9982 161.94 26.1287C162.499 26.414 163.076 26.6617 163.668 26.8703C164.84 27.3051 165.625 27.7419 166.023 28.1808C166.42 28.6197 166.606 29.1704 166.581 29.8328Z" fill="white"/>
<path d="M172.845 31.4995C173.108 31.5 173.37 31.4804 173.629 31.4407C173.833 31.4116 174.035 31.3708 174.234 31.3184L174.173 32.4821C173.935 32.5803 173.686 32.6466 173.431 32.6791C173.143 32.7284 172.85 32.7546 172.558 32.7574C170.607 32.7574 169.686 31.7344 169.794 29.6884L170.109 23.7158H168.665L168.703 22.9816L170.181 22.3489L170.937 20.2051H171.821L171.698 22.53H174.624L174.562 23.7121H171.636L171.324 29.6199C171.292 30.226 171.412 30.6902 171.684 31.0125C171.955 31.3347 172.343 31.497 172.845 31.4995Z" fill="white"/>
<path d="M181.661 22.3478C182.063 22.3434 182.465 22.3803 182.86 22.4579L182.575 23.8688C182.214 23.7833 181.844 23.7373 181.473 23.7317C180.658 23.7317 179.943 24.0613 179.328 24.7204C178.714 25.3796 178.381 26.2011 178.329 27.1849L178.045 32.569H176.518L177.047 22.5289H178.308L178.384 24.3888H178.457C178.818 23.7855 179.307 23.2691 179.89 22.8764C180.415 22.5289 181.031 22.3449 181.661 22.3478Z" fill="white"/>
<path d="M185.299 32.5714H183.771L184.301 22.5312H185.828L185.299 32.5714Z" fill="white"/>
<path d="M194.461 32.5715L194.232 31.1423H194.159C193.623 31.7713 193.099 32.1975 192.588 32.421C191.987 32.6602 191.344 32.7739 190.698 32.7551C189.698 32.7551 188.928 32.4985 188.388 31.9854C187.848 31.4723 187.603 30.7426 187.654 29.7963C187.761 27.7691 189.445 26.7061 192.706 26.6074L194.42 26.5536L194.453 25.9295C194.494 25.1431 194.355 24.5615 194.034 24.1846C193.714 23.8077 193.179 23.6201 192.431 23.6217C191.591 23.6217 190.627 23.8783 189.538 24.3914L189.13 23.2277C189.658 22.9521 190.218 22.7397 190.796 22.595C191.382 22.4447 191.984 22.3678 192.589 22.3662C193.791 22.3662 194.667 22.6322 195.219 23.164C195.77 23.6959 196.015 24.5476 195.953 25.719L195.592 32.5715H194.461ZM191.068 31.4996C192.019 31.4996 192.779 31.2402 193.349 30.7214C193.918 30.2025 194.228 29.4757 194.278 28.5408L194.325 27.6341L192.796 27.6977C191.579 27.7409 190.693 27.929 190.139 28.2618C189.585 28.5946 189.29 29.1123 189.252 29.8146C189.224 30.3645 189.369 30.7825 189.688 31.0689C190.007 31.3552 190.466 31.4988 191.066 31.4996H191.068Z" fill="white"/>
<path d="M199.51 32.5713H197.982L198.757 17.8054H200.284L199.51 32.5713Z" fill="white"/>
<path d="M123.999 32.5713H122.472L123.246 17.8054H124.773L123.999 32.5713Z" fill="white"/>
<path fill-rule="evenodd" clip-rule="evenodd" d="M185.231 18.651C185.347 18.6489 185.463 18.671 185.571 18.716C185.679 18.7609 185.776 18.8277 185.856 18.9121C185.937 18.9965 185.999 19.0967 186.039 19.2064C186.078 19.3161 186.095 19.4328 186.087 19.5492C186.072 19.7905 185.966 20.0172 185.791 20.1836C185.615 20.35 185.383 20.4438 185.142 20.4461C185.025 20.4482 184.909 20.4261 184.802 20.3813C184.694 20.3364 184.597 20.2697 184.517 20.1854C184.436 20.1012 184.374 20.0011 184.334 19.8916C184.294 19.7821 184.277 19.6655 184.285 19.5492C184.3 19.3078 184.405 19.081 184.581 18.9144C184.756 18.7477 184.988 18.6537 185.23 18.651" fill="white"/>
</g>
<defs>
<clipPath id="clip0_125_341">
<rect width="205.5" height="50" fill="white"/>
</clipPath>
</defs>
</svg>
